<svg width="24" height="36" viewBox="0 0 24 36" fill="none" xmlns="http://www.w3.org/2000/svg">
<path fill-rule="evenodd" clip-rule="evenodd" d="M3.36874 15.702C4.05042 15.0199 4.81248 14.4192 5.63287 13.9001H22.4925C22.608 14.4905 22.7087 15.0917 22.7918 15.702H3.36874ZM2.07189 12.4398C1.99128 12.5354 1.93051 12.6481 1.89588 12.7717C1.73945 12.9654 1.51473 13.0867 1.26503 13.0867C0.792457 13.0867 0.409358 12.652 0.409358 12.1156C0.409358 11.5793 0.792457 11.1445 1.26503 11.1445C1.73761 11.1445 2.12071 11.5793 2.12071 12.1156C2.12071 12.2293 2.1035 12.3384 2.07189 12.4398ZM1.90856 17.4796H2.91521L2.82057 33.4693C2.81123 33.5592 2.80228 33.6478 2.79369 33.7348C-0.987566 26.633 -0.571046 21.2024 1.90856 17.4796ZM22.9798 17.4796C23.1942 20.3461 22.9828 23.3695 22.073 26.3891C19.0709 36.348 8.95905 35.8864 4.64753 35.1994C4.83884 31.0391 5.52857 27.8905 6.44668 25.5083C9.08544 18.6578 13.6117 18.147 13.6117 18.147C8.76448 18.6668 6.10972 21.9223 4.62522 25.559L4.7025 17.4796H22.9798ZM22.0945 12.1225C20.3265 5.10308 16.7411 0 16.7411 0C16.7411 0 18.1237 3.83877 14.7427 7.91026H17.1365C17.629 7.91026 18.0282 8.30822 18.0282 8.79909V12.1225H22.0945ZM12.9494 9.68792C12.5619 10.0096 12.1389 10.3295 11.6774 10.6458C10.9422 11.1496 10.1093 11.6442 9.16634 12.1225H11.6774H16.2449V9.68792H12.9494ZM3.95467 11.8382C4.29221 11.8382 4.56584 11.5276 4.56584 11.1446C4.56584 10.7615 4.29221 10.4509 3.95467 10.4509C3.61712 10.4509 3.34349 10.7615 3.34349 11.1446C3.34349 11.5276 3.61712 11.8382 3.95467 11.8382ZM4.93296 4.55534C4.93296 5.51304 4.24888 6.2894 3.40503 6.2894C2.56118 6.2894 1.87711 5.51304 1.87711 4.55534C1.87711 3.59765 2.56118 2.82128 3.40503 2.82128C4.24888 2.82128 4.93296 3.59765 4.93296 4.55534ZM8.1112 9.06388C8.38124 9.06388 8.60015 8.81544 8.60015 8.50897C8.60015 8.2025 8.38124 7.95405 8.1112 7.95405C7.84116 7.95405 7.62225 8.2025 7.62225 8.50897C7.62225 8.81544 7.84116 9.06388 8.1112 9.06388ZM13.6117 5.38749C13.6117 6.26858 12.9823 6.98284 12.206 6.98284C11.4296 6.98284 10.8003 6.26858 10.8003 5.38749C10.8003 4.5064 11.4296 3.79214 12.206 3.79214C12.9823 3.79214 13.6117 4.5064 13.6117 5.38749Z" fill="#245B09"/>
</svg>
